# xmcd CD database file
# Copyright (C) 1997 Ti Kan
# 
# Track frame offsets:
#     150
#     14577
#     39700
#     59437
#     87905
#     106830
#     118940
#     142597
# 
# Disc length: 2334 seconds
# 
# Revision: 1
# Processed by: cddbd v1.4b41PL1 Copyright (c) Steve Scherf et al.
# Submitted via: DiscPlay 4.0.4
# 
DISCID=66091c08
DTITLE=Brinsley Schwarz - Desipite It All
DYEAR=1900
DGENRE=
TTITLE0=Country Girl
TTITLE1=The Slow One
TTITLE2=Funk Angel
TTITLE3=Piece Of Home
TTITLE4=Love Song
TTITLE5=Starship
TTITLE6=Ebury Down
TTITLE7=Old Jarow
EXTD=
EXTT0=
EXTT1=
EXTT2=
EXTT3=
EXTT4=
EXTT5=
EXTT6=
EXTT7=
PLAYORDER=
